<svg width="665pt" height="598pt" viewBox="0 0 665 598" xmlns="http://www.w3.org/2000/svg">
  <g/>
  <g fill="#f68955">
    <path d="M300.75 27.94c11.08-.58 22.18-1.79 33.28-.96 5.93.54 11.89.57 17.82 1.15 42.76 4.39 84.38 19.75 119.58 44.45 35.44 24.79 64.63 58.52 83.72 97.35 12.14 24.85 20.48 51.67 23.74 79.17-13.18-12.64-31.63-19.68-49.88-18.82-8.13.07-16 2.57-23.49 5.53-11.75-45.02-41.01-85.17-80.35-110.05-35.35-22.57-78.51-32.92-120.23-28.12-33.19 3.58-65.29 16.36-91.9 36.52-22.48 16.95-41.06 39.02-53.89 64.08-23.13-1.75-46.85 4.7-65.78 18.14-7.58 5.22-13.93 11.9-19.96 18.78 3.09-15.04 6.96-29.98 12.66-44.25 25.96-68.45 82.95-124.33 151.89-148.94 20.22-7.28 41.38-12.04 62.79-14.03Z"/>
    <path d="M278.94 123.21c12.67-3.95 25.92-5.49 39.1-6.53 26.6-.96 53.48 4.29 77.58 15.67 45.77 21.15 80.89 64.33 91.53 113.69-16 11.11-30.26 24.45-45.72 36.26-6.59 5.21-13.45 10.07-20.41 14.77 2.43-20.08-.68-41-10.29-58.92-12.34-23.74-34.98-41.88-60.89-48.61-24.68-6.82-52.01-2.88-73.92 10.33-11.87 7.03-22.16 16.67-30.09 27.95-1.65 2.3-2.92 4.88-4.8 7.02-14.94-12.11-31.08-23.2-49.31-29.73-3.82-1.36-7.68-2.59-11.53-3.82 7.4-12.56 16.02-24.45 26.32-34.8 19.9-20.3 45.07-35.49 72.43-43.28Z"/>
  </g>
  <path fill="#f0cb7a" d="M303.42 209.59c13.89-4.26 29.03-4.32 42.95-.16 19.32 5.4 36.06 18.99 45.74 36.5 10.91 19.43 12.55 43.78 4.38 64.5-15.02 6.55-31.8 8.51-48 6.35-20.37-2.75-39.12-13.34-53.55-27.75-13.02-13.13-25.61-26.68-38.56-39.88 9.49-18.81 26.68-33.79 47.04-39.56Z"/>
  <g fill="#71b6b1">
    <path d="M120.13 224.32c21.22-8.91 45.84-7.92 67.05.49 15.4 6.06 29.23 15.54 41.75 26.24 13.34 11.32 24.85 24.53 37.08 36.98 32.38 33.29 64.36 67.64 102.78 94.13 31.39 21.52 68.64 36.69 107.22 35.65 31.45-.11 62.24-13.33 84.86-34.99-6.02 14.8-13.76 28.9-22.65 42.17-11.28 16.28-25.91 30.35-43.15 40.19-16.84 9.73-35.85 15.23-55.1 17.43-22.4 2.66-45.13.35-67-4.8-36.11-9.34-69.32-27.26-100.52-47.32-21.21-13.77-41.53-28.88-60.99-45.02-14.94-11.83-31.83-23.36-51.48-24.49-13.3-.44-27.04 3.1-37.72 11.25-11.2 8.37-18.8 21.23-21.1 34.99-13.44-24.31-23.01-50.79-27.93-78.13-3.78-22.52-2.92-46.7 7.4-67.46 8.06-16.68 22.27-30.39 39.5-37.31Z"/>
    <path d="M525.04 250.79c15.4-2.29 31.78 3.42 42.24 15 10.41 11.22 14.57 27.27 12.78 42.29-1.7 13.49-6.82 26.43-14.04 37.91-9.05 13.34-20.32 25.33-33.77 34.31-14.62 9.84-31.84 15.68-49.36 17.24-9.33.27-18.75.57-28-.87-23.56-3.52-45.98-12.77-66.1-25.36-16.16-10.21-31.34-22.01-45.36-34.98 22.05 3.64 45.24.32 65.31-9.55 18.83-8.8 35.72-21.13 51.87-34.09 10.99-8.7 21.46-18.06 32.7-26.43 9.55-6.91 19.88-13.54 31.73-15.47ZM148.09 382.11c9.88-2.33 20.44-.45 29.27 4.41 14.53 7.49 26.34 18.99 39.27 28.77 33.61 25.96 69.33 49.62 108.26 66.83 31.07 13.87 64.94 22.39 99.12 21.47 12.87.11 25.66-1.66 38.21-4.45-28.99 19-62.33 31.03-96.45 36.7-38.95 5.91-79.3 3.47-116.93-8.39-39.61-12.3-76.11-34.47-105.28-63.96-10.01-9.58-18.69-21.2-22.08-34.84-1.94-9.63-1.75-20.26 3.2-29 4.6-9 13.43-15.76 23.41-17.54Z"/>
  </g>
</svg>